<svg xmlns="http://www.w3.org/2000/svg" width="960" height="640" viewBox="0 0 960 640">
  <rect width="960" height="640" fill="#f9fafb"/>
  <text x="480" y="36" text-anchor="middle" font-size="20" font-weight="bold" font-family="Arial,sans-serif" fill="#111827">フェーズ進行ゲート：次のフェーズへ進む判断基準</text>

  <!-- ===== PHASE BOXES and GATES ===== -->

  <!-- P1 Box -->
  <rect x="30" y="60" width="160" height="70" rx="8" fill="#dbeafe" stroke="#2563eb" stroke-width="2"/>
  <text x="110" y="90" text-anchor="middle" font-size="13" font-weight="bold" font-family="Arial,sans-serif" fill="#1e3a8a">フェーズ 1</text>
  <text x="110" y="110" text-anchor="middle" font-size="11" font-family="Arial,sans-serif" fill="#1d4ed8">設計・部品調達</text>
  <text x="110" y="126" text-anchor="middle" font-size="10" font-family="Arial,sans-serif" fill="#3b82f6">2〜3週間</text>

  <!-- Arrow P1 → Gate1 -->
  <line x1="190" y1="95" x2="238" y2="95" stroke="#374151" stroke-width="2" marker-end="url(#garr)"/>

  <!-- Gate 1 (Diamond) -->
  <polygon points="280,68 330,95 280,122 230,95" fill="#fbbf24" stroke="#d97706" stroke-width="2"/>
  <text x="280" y="99" text-anchor="middle" font-size="11" font-weight="bold" font-family="Arial,sans-serif" fill="#78350f">G1</text>
  <!-- Gate 1 condition -->
  <rect x="200" y="132" width="162" height="52" rx="5" fill="#fffbeb" stroke="#fbbf24" stroke-width="1"/>
  <text x="281" y="150" text-anchor="middle" font-size="10" font-family="Arial,sans-serif" fill="#78350f">全部品の納期確定</text>
  <text x="281" y="166" text-anchor="middle" font-size="10" font-family="Arial,sans-serif" fill="#78350f">3Dプリント発注済み</text>
  <text x="281" y="182" text-anchor="middle" font-size="10" font-family="Arial,sans-serif" fill="#78350f">図面（寸法）確定済み</text>

  <!-- Arrow Gate1 → P2 -->
  <line x1="330" y1="95" x2="378" y2="95" stroke="#374151" stroke-width="2" marker-end="url(#garr)"/>

  <!-- P2 Box -->
  <rect x="380" y="60" width="160" height="70" rx="8" fill="#dcfce7" stroke="#16a34a" stroke-width="2"/>
  <text x="460" y="90" text-anchor="middle" font-size="13" font-weight="bold" font-family="Arial,sans-serif" fill="#14532d">フェーズ 2</text>
  <text x="460" y="110" text-anchor="middle" font-size="11" font-family="Arial,sans-serif" fill="#166534">電子回路組立</text>
  <text x="460" y="126" text-anchor="middle" font-size="10" font-family="Arial,sans-serif" fill="#4ade80">1〜2週間</text>

  <!-- Arrow P2 → Gate2 -->
  <line x1="540" y1="95" x2="588" y2="95" stroke="#374151" stroke-width="2" marker-end="url(#garr)"/>

  <!-- Gate 2 -->
  <polygon points="630,68 680,95 630,122 580,95" fill="#fbbf24" stroke="#d97706" stroke-width="2"/>
  <text x="630" y="99" text-anchor="middle" font-size="11" font-weight="bold" font-family="Arial,sans-serif" fill="#78350f">G2</text>
  <!-- Gate 2 condition -->
  <rect x="550" y="132" width="162" height="52" rx="5" fill="#fffbeb" stroke="#fbbf24" stroke-width="1"/>
  <text x="631" y="150" text-anchor="middle" font-size="10" font-family="Arial,sans-serif" fill="#78350f">UGSで X軸・Y軸の</text>
  <text x="631" y="166" text-anchor="middle" font-size="10" font-family="Arial,sans-serif" fill="#78350f">モーター単体駆動成功</text>
  <text x="631" y="182" text-anchor="middle" font-size="10" font-family="Arial,sans-serif" fill="#78350f">StealthChop動作確認</text>

  <!-- Arrow Gate2 → P3 -->
  <line x1="680" y1="95" x2="728" y2="95" stroke="#374151" stroke-width="2" marker-end="url(#garr)"/>

  <!-- P3 Box -->
  <rect x="730" y="60" width="200" height="70" rx="8" fill="#d1fae5" stroke="#059669" stroke-width="2"/>
  <text x="830" y="90" text-anchor="middle" font-size="13" font-weight="bold" font-family="Arial,sans-serif" fill="#065f46">フェーズ 3</text>
  <text x="830" y="110" text-anchor="middle" font-size="11" font-family="Arial,sans-serif" fill="#047857">CoreXYメカ組立</text>
  <text x="830" y="126" text-anchor="middle" font-size="10" font-family="Arial,sans-serif" fill="#6ee7b7">1〜2週間</text>

  <!-- ===== SECOND ROW ===== -->
  <!-- Arrow P3 → Gate3 (down) -->
  <line x1="830" y1="130" x2="830" y2="248" stroke="#374151" stroke-width="2" marker-end="url(#garr)"/>

  <!-- Gate 3 -->
  <polygon points="830,222 880,250 830,278 780,250" fill="#fbbf24" stroke="#d97706" stroke-width="2"/>
  <text x="830" y="254" text-anchor="middle" font-size="11" font-weight="bold" font-family="Arial,sans-serif" fill="#78350f">G3</text>
  <!-- Gate 3 condition -->
  <rect x="748" y="288" width="164" height="52" rx="5" fill="#fffbeb" stroke="#fbbf24" stroke-width="1"/>
  <text x="830" y="306" text-anchor="middle" font-size="10" font-family="Arial,sans-serif" fill="#78350f">砂なしで磁石+ボールが</text>
  <text x="830" y="322" text-anchor="middle" font-size="10" font-family="Arial,sans-serif" fill="#78350f">アクリル全域を追従</text>
  <text x="830" y="338" text-anchor="middle" font-size="10" font-family="Arial,sans-serif" fill="#78350f">GRBLキャリブ完了</text>

  <!-- Arrow Gate3 → P4 (left) -->
  <line x1="780" y1="250" x2="592" y2="250" stroke="#374151" stroke-width="2" marker-end="url(#garr)"/>

  <!-- P4 Box -->
  <rect x="430" y="215" width="160" height="70" rx="8" fill="#fef9c3" stroke="#ca8a04" stroke-width="2"/>
  <text x="510" y="245" text-anchor="middle" font-size="13" font-weight="bold" font-family="Arial,sans-serif" fill="#78350f">フェーズ 4</text>
  <text x="510" y="265" text-anchor="middle" font-size="11" font-family="Arial,sans-serif" fill="#92400e">テーブル筐体製作</text>
  <text x="510" y="281" text-anchor="middle" font-size="10" font-family="Arial,sans-serif" fill="#f59e0b">1〜2週間</text>

  <!-- Arrow P4 → Gate4 (left) -->
  <line x1="430" y1="250" x2="382" y2="250" stroke="#374151" stroke-width="2" marker-end="url(#garr)"/>

  <!-- Gate 4 -->
  <polygon points="340,222 390,250 340,278 290,250" fill="#fbbf24" stroke="#d97706" stroke-width="2"/>
  <text x="340" y="254" text-anchor="middle" font-size="11" font-weight="bold" font-family="Arial,sans-serif" fill="#78350f">G4</text>
  <!-- Gate 4 condition -->
  <rect x="258" y="288" width="164" height="52" rx="5" fill="#fffbeb" stroke="#fbbf24" stroke-width="1"/>
  <text x="340" y="306" text-anchor="middle" font-size="10" font-family="Arial,sans-serif" fill="#78350f">砂投入後に手動Gコードで</text>
  <text x="340" y="322" text-anchor="middle" font-size="10" font-family="Arial,sans-serif" fill="#78350f">砂紋描画を再現可能</text>
  <text x="340" y="338" text-anchor="middle" font-size="10" font-family="Arial,sans-serif" fill="#78350f">24h 連続通電 異常なし</text>

  <!-- Arrow Gate4 → P5 (left) -->
  <line x1="290" y1="250" x2="190" y2="250" stroke="#374151" stroke-width="2" marker-end="url(#garr)"/>

  <!-- P5 Box -->
  <rect x="30" y="215" width="160" height="70" rx="8" fill="#ede9fe" stroke="#7c3aed" stroke-width="2"/>
  <text x="110" y="245" text-anchor="middle" font-size="13" font-weight="bold" font-family="Arial,sans-serif" fill="#4c1d95">フェーズ 5</text>
  <text x="110" y="265" text-anchor="middle" font-size="11" font-family="Arial,sans-serif" fill="#5b21b6">ソフトウェア開発</text>
  <text x="110" y="281" text-anchor="middle" font-size="10" font-family="Arial,sans-serif" fill="#8b5cf6">2〜3週間</text>

  <!-- Arrow P5 → Gate5 (down) -->
  <line x1="110" y1="285" x2="110" y2="398" stroke="#374151" stroke-width="2" marker-end="url(#garr)"/>

  <!-- Gate 5 -->
  <polygon points="110,372 160,400 110,428 60,400" fill="#fbbf24" stroke="#d97706" stroke-width="2"/>
  <text x="110" y="404" text-anchor="middle" font-size="11" font-weight="bold" font-family="Arial,sans-serif" fill="#78350f">G5</text>
  <!-- Gate 5 condition -->
  <rect x="28" y="438" width="164" height="52" rx="5" fill="#fffbeb" stroke="#fbbf24" stroke-width="1"/>
  <text x="110" y="456" text-anchor="middle" font-size="10" font-family="Arial,sans-serif" fill="#78350f">潮汐API連動で自動切替が</text>
  <text x="110" y="472" text-anchor="middle" font-size="10" font-family="Arial,sans-serif" fill="#78350f">1日以上安定動作</text>
  <text x="110" y="488" text-anchor="middle" font-size="10" font-family="Arial,sans-serif" fill="#78350f">Web UI 操作確認済み</text>

  <!-- Arrow Gate5 → P6 (right) -->
  <line x1="170" y1="400" x2="268" y2="400" stroke="#374151" stroke-width="2" marker-end="url(#garr)"/>

  <!-- P6 Box -->
  <rect x="270" y="365" width="200" height="70" rx="8" fill="#fee2e2" stroke="#dc2626" stroke-width="2"/>
  <text x="370" y="395" text-anchor="middle" font-size="13" font-weight="bold" font-family="Arial,sans-serif" fill="#991b1b">フェーズ 6</text>
  <text x="370" y="415" text-anchor="middle" font-size="11" font-family="Arial,sans-serif" fill="#b91c1c">統合テスト・最終調整</text>
  <text x="370" y="431" text-anchor="middle" font-size="10" font-family="Arial,sans-serif" fill="#ef4444">1〜2週間</text>

  <!-- Completion -->
  <line x1="470" y1="400" x2="548" y2="400" stroke="#374151" stroke-width="2" marker-end="url(#garr)"/>
  <rect x="550" y="365" width="195" height="70" rx="8" fill="#4ade80" stroke="#16a34a" stroke-width="2.5"/>
  <text x="647" y="392" text-anchor="middle" font-size="14" font-weight="bold" font-family="Arial,sans-serif" fill="#14532d">完成・日常運用開始</text>
  <text x="647" y="412" text-anchor="middle" font-size="12" font-family="Arial,sans-serif" fill="#14532d">24時間連続運転テスト合格</text>
  <text x="647" y="430" text-anchor="middle" font-size="11" font-family="Arial,sans-serif" fill="#166534">潮汐連動で自動鑑賞可能</text>

  <!-- ===== BOTTOM: Timeline ===== -->
  <rect x="30" y="510" width="900" height="115" rx="8" fill="#fff" stroke="#e2e8f0" stroke-width="1"/>
  <text x="480" y="532" text-anchor="middle" font-size="13" font-weight="bold" font-family="Arial,sans-serif" fill="#1e293b">全体スケジュール目安</text>

  <!-- Timeline bar -->
  <rect x="50" y="548" width="850" height="12" rx="6" fill="#e2e8f0"/>
  <!-- P1-6 segments -->
  <rect x="50" y="548" width="170" height="12" rx="6" fill="#3b82f6"/>
  <rect x="220" y="548" width="100" height="12" rx="6" fill="#16a34a"/>
  <rect x="320" y="548" width="130" height="12" rx="6" fill="#059669"/>
  <rect x="450" y="548" width="120" height="12" rx="6" fill="#ca8a04"/>
  <rect x="570" y="548" width="195" height="12" rx="6" fill="#7c3aed"/>
  <rect x="765" y="548" width="135" height="12" rx="6" fill="#dc2626"/>

  <!-- Phase labels below -->
  <text x="135" y="578" text-anchor="middle" font-size="10" font-family="Arial,sans-serif" fill="#2563eb">P1: 2〜3週</text>
  <text x="270" y="578" text-anchor="middle" font-size="10" font-family="Arial,sans-serif" fill="#15803d">P2: 1〜2週</text>
  <text x="385" y="578" text-anchor="middle" font-size="10" font-family="Arial,sans-serif" fill="#065f46">P3: 1〜2週</text>
  <text x="510" y="578" text-anchor="middle" font-size="10" font-family="Arial,sans-serif" fill="#92400e">P4: 1〜2週</text>
  <text x="667" y="578" text-anchor="middle" font-size="10" font-family="Arial,sans-serif" fill="#5b21b6">P5: 2〜3週</text>
  <text x="832" y="578" text-anchor="middle" font-size="10" font-family="Arial,sans-serif" fill="#b91c1c">P6: 1〜2週</text>

  <text x="480" y="612" text-anchor="middle" font-size="11" font-family="Arial,sans-serif" fill="#64748b">合計: 約8〜14週間（実作業日 約20〜30日）  ※P1部品待ち中にP5ソフト開発を並行可能</text>

  <!-- Arrow defs -->
  <defs>
    <marker id="garr" viewBox="0 0 10 10" refX="8" refY="5" markerWidth="6" markerHeight="6" orient="auto">
      <path d="M2 1L8 5L2 9" fill="none" stroke="context-stroke" stroke-width="2" stroke-linecap="round"/>
    </marker>
  </defs>
</svg>
