<svg xmlns="http://www.w3.org/2000/svg" width="960" height="420" viewBox="0 0 960 420">
  <rect width="960" height="420" fill="#f7fafc"/>
  <text x="40" y="45" font-size="28" font-family="Arial" fill="#1f2937">フェーズ1: 設計・調達イメージ</text>
  <rect x="40" y="80" width="280" height="280" rx="12" fill="#e0f2fe" stroke="#0284c7"/>
  <text x="70" y="120" font-size="22" font-family="Arial" fill="#0c4a6e">設計図</text>
  <rect x="80" y="145" width="200" height="150" fill="#fff" stroke="#0ea5e9"/>
  <line x1="95" y1="175" x2="265" y2="175" stroke="#94a3b8"/>
  <line x1="95" y1="210" x2="265" y2="210" stroke="#94a3b8"/>
  <line x1="95" y1="245" x2="265" y2="245" stroke="#94a3b8"/>
  <text x="95" y="320" font-size="16" font-family="Arial" fill="#075985">寸法を先に確定</text>

  <polygon points="340,220 400,220 400,205 435,235 400,265 400,250 340,250" fill="#64748b"/>

  <rect x="460" y="80" width="460" height="280" rx="12" fill="#ecfccb" stroke="#65a30d"/>
  <text x="490" y="120" font-size="22" font-family="Arial" fill="#3f6212">部品到着の見た目</text>
  <rect x="500" y="145" width="120" height="80" fill="#fff" stroke="#84cc16"/>
  <text x="520" y="190" font-size="14" font-family="Arial" fill="#365314">V-Slot</text>
  <rect x="640" y="145" width="120" height="80" fill="#fff" stroke="#84cc16"/>
  <text x="665" y="190" font-size="14" font-family="Arial" fill="#365314">NEMA17</text>
  <rect x="780" y="145" width="120" height="80" fill="#fff" stroke="#84cc16"/>
  <text x="805" y="190" font-size="14" font-family="Arial" fill="#365314">TMC2209</text>
  <rect x="500" y="245" width="400" height="90" fill="#fff" stroke="#84cc16"/>
  <text x="520" y="278" font-size="18" font-family="Arial" fill="#365314">チェック:</text>
  <text x="520" y="305" font-size="16" font-family="Arial" fill="#365314">3Dプリント納期 / アクリル寸法 / 電源仕様</text>
</svg>
